<svg width="529" height="484" viewBox="0 0 529 484" fill="none" xmlns="http://www.w3.org/2000/svg">
<path d="M250 438.535C255 462.535 283.5 433.035 283.5 433.035L317.5 429.035C317.5 429.035 339 429.535 353 440.535C367 451.535 376.5 437.035 376.5 437.035C392.273 442.292 411.597 442.271 428.333 440.587C452.449 438.161 471.779 419.547 475.093 395.537C493.79 260.095 391 193.535 391 193.535L361 112.535C361 112.535 370.5 89.0349 373.5 68.0349C376.5 47.0349 354.5 27.0348 327.5 7.03484C315.687 -1.71516 302.152 -1.08625 290.663 2.38982C277.774 6.28928 266.531 14.3081 258.223 24.906C251.34 33.6859 239.536 46.1207 226.56 48.2748C222.07 49.0148 217.64 50.7949 213.5 54.0348C209.22 57.3848 207.33 62.9748 207.27 69.9249C206.95 100.285 232.02 136.835 254 142.535C281 149.535 266.5 216.035 266.5 216.035C222.5 278.035 253.5 347.035 253.5 347.035L245.5 403.035C245.5 403.035 245 414.535 250 438.535Z" fill="#3F3D56"/>
<path d="M323.299 51.9437C323.299 51.9437 305.849 7.1273 330.841 6.50019C355.833 5.87308 375.574 44.7101 375.574 44.7101C375.574 44.7101 438.302 159.053 352.36 152.887C266.418 146.72 307.486 101.076 307.486 101.076C307.486 101.076 327.088 76.9765 323.299 51.9437Z" fill="#2F2E41"/>
<path d="M397 309.535L386 446.535C386 446.535 401 484.535 350 482.535C299 480.535 329 402.535 329 402.535L345 300.535" fill="#3F3D56"/>
<path d="M353.795 483.611C352.548 483.611 351.271 483.586 349.961 483.534C338.671 483.092 330.357 478.933 325.25 471.176C310.647 448.994 326.889 405.269 328.028 402.276L344.012 300.38C344.098 299.834 344.605 299.467 345.155 299.547C345.7 299.633 346.073 300.144 345.988 300.69L329.988 402.69C329.977 402.759 329.959 402.828 329.934 402.894C329.759 403.346 312.682 448.45 326.922 470.078C331.654 477.264 339.432 481.12 350.039 481.536C366.691 482.185 377.892 478.633 383.337 470.967C390.461 460.939 385.124 447.041 385.069 446.901C385.014 446.759 384.991 446.606 385.003 446.455L396.003 309.455C396.047 308.905 396.52 308.504 397.08 308.538C397.631 308.583 398.041 309.064 397.997 309.615L387.015 446.39C387.741 448.351 392.297 461.795 384.976 472.114C379.559 479.75 369.077 483.611 353.795 483.611Z" fill="#2F2E41"/>
<path d="M306 337.535C306 337.535 309 464.535 246 461.535C183 458.535 240 418.535 240 418.535L245.5 403.035" fill="#3F3D56"/>
<path d="M248.162 462.586C247.431 462.586 246.695 462.569 245.952 462.534C227.964 461.677 217.8 457.647 215.744 450.555C212.04 437.776 236.184 420.034 239.163 417.902L244.558 402.701C244.742 402.179 245.314 401.908 245.834 402.092C246.355 402.277 246.627 402.848 246.443 403.369L240.943 418.869C240.873 419.065 240.744 419.234 240.574 419.353C240.311 419.539 214.197 438.038 217.666 449.999C219.458 456.179 229.007 459.724 246.048 460.536C257.397 461.082 267.345 457.265 275.599 449.207C306.551 418.991 305.02 338.369 305 337.558C304.987 337.006 305.424 336.548 305.977 336.535C306.499 336.536 306.986 336.959 307 337.511C307.079 340.857 308.572 419.809 276.997 450.636C268.869 458.572 259.177 462.586 248.162 462.586Z" fill="#2F2E41"/>
<path d="M419.038 386.851C430.106 391.774 441.67 396.798 453.774 396.318C465.878 395.837 478.616 388.042 480.502 376.076C481.476 369.899 479.545 363.272 481.91 357.484C485.092 349.695 495.356 346.691 503.335 349.361C511.314 352.03 517.176 358.912 521.379 366.201C529.242 379.838 532.393 397.736 523.962 411.029C516.653 422.553 502.791 427.76 489.897 432.226C472.721 438.176 453.546 444.08 436.903 436.773C420.165 429.423 411.047 408.188 417.245 390.99" fill="#3F3D56"/>
<path d="M382.114 170.922C382.114 170.922 404.114 181.922 393.114 193.922C382.114 205.922 314.114 239.922 289.114 234.922C264.114 229.922 258.114 214.922 258.114 210.922C258.114 206.922 260 158.535 268 160.535C276 162.535 326.114 207.922 382.114 170.922Z" fill="#675F91"/>
<path d="M110.555 184.844C100.597 176.441 88.4121 171.114 75.482 169.511C62.552 167.908 49.4347 170.097 37.7263 175.813C26.0178 181.528 16.2231 190.524 9.53396 201.705C2.84481 212.886 -0.450332 225.77 0.0494869 238.789C0.549306 251.809 4.82254 264.402 12.3492 275.037C19.8759 285.672 30.3314 293.891 42.4436 298.692C54.5558 303.493 67.8024 304.67 80.5714 302.08C93.3404 299.49 105.081 293.245 114.366 284.104L196.808 353.668C198.062 354.728 199.687 355.247 201.323 355.11C202.96 354.973 204.476 354.191 205.536 352.937C206.597 351.683 207.115 350.058 206.978 348.421C206.841 346.784 206.06 345.269 204.805 344.209L204.796 344.201L122.354 274.637C131.931 260.891 136.03 244.065 133.847 227.455C131.665 210.845 123.358 195.648 110.555 184.844ZM105.24 267.938C98.8177 275.55 90.2822 281.086 80.7132 283.846C71.1442 286.607 60.9715 286.468 51.4815 283.447C41.9915 280.426 33.6104 274.659 27.3981 266.875C21.1857 259.091 17.4211 249.639 16.5804 239.715C15.7397 229.792 17.8605 219.842 22.6748 211.123C27.4891 202.405 34.7805 195.31 43.627 190.736C52.4736 186.161 62.4779 184.313 72.375 185.424C82.272 186.536 91.6171 190.557 99.2287 196.98C104.283 201.244 108.447 206.462 111.484 212.336C114.522 218.21 116.372 224.625 116.93 231.214C117.489 237.803 116.744 244.437 114.738 250.739C112.732 257.04 109.505 262.884 105.24 267.938Z" fill="#3F3D56"/>
</svg>
